<?xml version="1.0" encoding="UTF-8"?>
<svg xmlns="http://www.w3.org/2000/svg" xmlns:xlink="http://www.w3.org/1999/xlink" viewBox="0 0 50 50" version="1.1">
<g id="surface97465">
<path style=" stroke:none;fill-rule:nonzero;fill:rgb(24.705882%,31.764706%,70.980392%);fill-opacity:1;" d="M 2.082031 10.417969 L 47.917969 10.417969 L 47.917969 39.582031 L 2.082031 39.582031 Z M 2.082031 10.417969 "/>
<path style=" stroke:none;fill-rule:nonzero;fill:rgb(100%,100%,100%);fill-opacity:1;" d="M 2.082031 14.808594 L 23.761719 28.058594 L 27.019531 22.722656 L 6.882812 10.417969 L 2.082031 10.417969 Z M 2.082031 14.808594 "/>
<path style=" stroke:none;fill-rule:nonzero;fill:rgb(100%,100%,100%);fill-opacity:1;" d="M 47.917969 10.417969 L 44.15625 10.417969 L 24.023438 22.722656 L 27.28125 28.058594 L 47.917969 15.445312 Z M 47.917969 10.417969 "/>
<path style=" stroke:none;fill-rule:nonzero;fill:rgb(100%,100%,100%);fill-opacity:1;" d="M 27.28125 21.117188 L 24.023438 26.449219 L 45.511719 39.582031 L 47.917969 39.582031 L 47.917969 33.726562 Z M 27.28125 21.117188 "/>
<path style=" stroke:none;fill-rule:nonzero;fill:rgb(100%,100%,100%);fill-opacity:1;" d="M 2.082031 34.367188 L 2.082031 39.582031 L 5.53125 39.582031 L 27.019531 26.449219 L 23.761719 21.117188 Z M 2.082031 34.367188 "/>
<path style=" stroke:none;fill-rule:nonzero;fill:rgb(100%,100%,100%);fill-opacity:1;" d="M 2.082031 20.832031 L 47.917969 20.832031 L 47.917969 29.167969 L 2.082031 29.167969 Z M 2.082031 20.832031 "/>
<path style=" stroke:none;fill-rule:nonzero;fill:rgb(100%,100%,100%);fill-opacity:1;" d="M 20.832031 10.417969 L 29.167969 10.417969 L 29.167969 39.582031 L 20.832031 39.582031 Z M 20.832031 10.417969 "/>
<path style=" stroke:none;fill-rule:nonzero;fill:rgb(89.803922%,22.352941%,20.784314%);fill-opacity:1;" d="M 17.933594 20.832031 L 2.082031 11.144531 L 2.082031 13.585938 L 13.941406 20.832031 Z M 46.15625 10.417969 L 29.113281 20.832031 L 33.105469 20.832031 L 47.917969 11.78125 L 47.917969 10.417969 Z M 34.460938 29.167969 L 47.917969 37.390625 L 47.917969 34.949219 L 38.457031 29.167969 Z M 16.582031 29.167969 L 2.082031 38.027344 L 2.082031 39.582031 L 3.535156 39.582031 L 20.574219 29.167969 Z M 2.082031 22.917969 L 47.917969 22.917969 L 47.917969 27.082031 L 2.082031 27.082031 Z M 2.082031 22.917969 "/>
<path style=" stroke:none;fill-rule:nonzero;fill:rgb(89.803922%,22.352941%,20.784314%);fill-opacity:1;" d="M 22.917969 10.417969 L 27.082031 10.417969 L 27.082031 39.582031 L 22.917969 39.582031 Z M 22.917969 10.417969 "/>
</g>
</svg>
